<mxfile host="app.diagrams.net" modified="2022-04-20T08:14:06.454Z" agent="5.0 (Windows NT 10.0; Win64; x64) AppleWebKit/537.36 (KHTML, like Gecko) Chrome/100.0.4896.127 Safari/537.36" etag="Xt_Vf05Q5NhXu0Js1L8s" version="17.4.5" type="github">
  <diagram id="yg1IE7VaSwWJatzPuXuU" name="Page-1">
    <mxGraphModel dx="1038" dy="539" grid="1" gridSize="10" guides="1" tooltips="1" connect="1" arrows="1" fold="1" page="1" pageScale="1" pageWidth="827" pageHeight="1169" math="0" shadow="0">
      <root>
        <mxCell id="0" />
        <mxCell id="1" parent="0" />
        <mxCell id="ivgzuz-2pKS20QDYnzjS-1" value="&lt;h1&gt;&lt;span&gt;Algorithm&lt;/span&gt;&lt;/h1&gt;&lt;h1&gt;&lt;ul&gt;&lt;li&gt;&lt;span style=&quot;font-size: 12px&quot;&gt;Step 1 :&lt;/span&gt;&lt;span style=&quot;font-size: 12px ; font-weight: normal&quot;&gt; Start&lt;/span&gt;&lt;/li&gt;&lt;li&gt;&lt;span style=&quot;font-size: 12px&quot;&gt;Step 2 :&lt;/span&gt;&lt;span style=&quot;font-size: 12px ; font-weight: normal&quot;&gt;&amp;nbsp;Input monthly salary&lt;/span&gt;&lt;/li&gt;&lt;li&gt;&lt;span style=&quot;font-size: 12px&quot;&gt;Step 3 :&lt;/span&gt;&lt;span style=&quot;font-size: 12px ; font-weight: normal&quot;&gt;&amp;nbsp;Calculate yearly salary by &lt;/span&gt;&lt;span style=&quot;font-size: 12px ; font-weight: 400&quot;&gt;multiplying monthly salary by 12.&lt;/span&gt;&lt;/li&gt;&lt;li&gt;&lt;span style=&quot;font-size: 12px&quot;&gt;Step 4 :&lt;/span&gt;&lt;span style=&quot;font-size: 12px ; font-weight: normal&quot;&gt;&amp;nbsp;Calculate 6% tax from yearly salary by dividing yearly salary by 100 and multiplying by 6.&lt;/span&gt;&lt;/li&gt;&lt;li&gt;&lt;span style=&quot;font-size: 12px&quot;&gt;Step 5 :&lt;/span&gt;&lt;span style=&quot;font-size: 12px ; font-weight: normal&quot;&gt;&amp;nbsp;Calculate 10% bonus from yearly salary by dividing yearly salary by 100 and multiplying by 10.&lt;/span&gt;&lt;/li&gt;&lt;li&gt;&lt;span style=&quot;font-size: 12px&quot;&gt;Step 6 :&lt;/span&gt;&lt;span style=&quot;font-size: 12px ; font-weight: normal&quot;&gt;&amp;nbsp;Calculate gross salary by adding yearly salary with bonus.&lt;/span&gt;&lt;/li&gt;&lt;li&gt;&lt;span style=&quot;font-size: 12px&quot;&gt;Step 7 :&lt;/span&gt;&lt;span style=&quot;font-size: 12px ; font-weight: normal&quot;&gt;&amp;nbsp;Calculate net salary by &lt;/span&gt;&lt;span style=&quot;font-size: 12px ; font-weight: 400&quot;&gt;subtracting&lt;/span&gt;&lt;span style=&quot;font-size: 12px ; font-weight: normal&quot;&gt;&amp;nbsp;tax from gross salary.&lt;/span&gt;&lt;/li&gt;&lt;li&gt;&lt;span style=&quot;font-size: 12px&quot;&gt;Step 8 :&lt;/span&gt;&lt;span style=&quot;font-size: 12px ; font-weight: normal&quot;&gt;&amp;nbsp;Print gross salary&lt;/span&gt;&lt;/li&gt;&lt;li&gt;&lt;span style=&quot;font-size: 12px&quot;&gt;Step 9 :&lt;/span&gt;&lt;span style=&quot;font-size: 12px ; font-weight: normal&quot;&gt;&amp;nbsp;Print net salary&lt;/span&gt;&lt;/li&gt;&lt;li&gt;&lt;span style=&quot;font-size: 12px&quot;&gt;Step 10 :&lt;/span&gt;&lt;span style=&quot;font-size: 12px ; font-weight: normal&quot;&gt;&amp;nbsp;End&lt;/span&gt;&lt;/li&gt;&lt;li&gt;&lt;/li&gt;&lt;/ul&gt;&lt;/h1&gt;" style="text;html=1;strokeColor=none;fillColor=none;spacing=5;spacingTop=-20;whiteSpace=wrap;overflow=hidden;rounded=0;" parent="1" vertex="1">
          <mxGeometry x="80" y="80" width="680" height="350" as="geometry" />
        </mxCell>
        <mxCell id="ivgzuz-2pKS20QDYnzjS-2" value="&lt;b&gt;&lt;font style=&quot;font-size: 18px&quot;&gt;YEARLY NET SALARY CALCULATION&lt;/font&gt;&lt;/b&gt;" style="text;html=1;strokeColor=none;fillColor=none;align=left;verticalAlign=middle;whiteSpace=wrap;rounded=0;" parent="1" vertex="1">
          <mxGeometry x="80" y="39" width="470" height="30" as="geometry" />
        </mxCell>
        <mxCell id="ivgzuz-2pKS20QDYnzjS-3" value="&lt;h1&gt;&lt;font style=&quot;font-size: 30px&quot;&gt;Flow chart&lt;/font&gt;&lt;/h1&gt;" style="text;html=1;strokeColor=none;fillColor=none;align=left;verticalAlign=middle;whiteSpace=wrap;rounded=0;fontSize=18;" parent="1" vertex="1">
          <mxGeometry x="80" y="443" width="210" height="30" as="geometry" />
        </mxCell>
        <mxCell id="ivgzuz-2pKS20QDYnzjS-4" value="&lt;font style=&quot;font-size: 16px&quot;&gt;Start&lt;/font&gt;" style="rounded=1;whiteSpace=wrap;html=1;fontSize=30;align=center;" parent="1" vertex="1">
          <mxGeometry x="290" y="476" width="110" height="40" as="geometry" />
        </mxCell>
        <mxCell id="ivgzuz-2pKS20QDYnzjS-5" value="input ms" style="shape=parallelogram;perimeter=parallelogramPerimeter;whiteSpace=wrap;html=1;fixedSize=1;fontSize=16;" parent="1" vertex="1">
          <mxGeometry x="263" y="542" width="164" height="30" as="geometry" />
        </mxCell>
        <mxCell id="ivgzuz-2pKS20QDYnzjS-6" value="" style="endArrow=classic;html=1;rounded=0;fontSize=16;entryX=0.5;entryY=0;entryDx=0;entryDy=0;exitX=0.5;exitY=1;exitDx=0;exitDy=0;" parent="1" source="ivgzuz-2pKS20QDYnzjS-4" target="ivgzuz-2pKS20QDYnzjS-5" edge="1">
          <mxGeometry width="50" height="50" relative="1" as="geometry">
            <mxPoint x="390" y="492" as="sourcePoint" />
            <mxPoint x="440" y="442" as="targetPoint" />
          </mxGeometry>
        </mxCell>
        <mxCell id="ivgzuz-2pKS20QDYnzjS-7" value="ys = ms * 12" style="rounded=0;whiteSpace=wrap;html=1;fontSize=16;" parent="1" vertex="1">
          <mxGeometry x="269" y="602" width="150" height="30" as="geometry" />
        </mxCell>
        <mxCell id="ivgzuz-2pKS20QDYnzjS-8" value="" style="endArrow=classic;html=1;rounded=0;fontSize=16;entryX=0.5;entryY=0;entryDx=0;entryDy=0;exitX=0.5;exitY=1;exitDx=0;exitDy=0;" parent="1" source="ivgzuz-2pKS20QDYnzjS-5" target="ivgzuz-2pKS20QDYnzjS-7" edge="1">
          <mxGeometry width="50" height="50" relative="1" as="geometry">
            <mxPoint x="390" y="492" as="sourcePoint" />
            <mxPoint x="440" y="442" as="targetPoint" />
          </mxGeometry>
        </mxCell>
        <mxCell id="ivgzuz-2pKS20QDYnzjS-9" value="tax = (ys/100)*6" style="rounded=0;whiteSpace=wrap;html=1;fontSize=16;" parent="1" vertex="1">
          <mxGeometry x="270" y="662" width="150" height="30" as="geometry" />
        </mxCell>
        <mxCell id="ivgzuz-2pKS20QDYnzjS-10" value="" style="endArrow=classic;html=1;rounded=0;fontSize=16;entryX=0.5;entryY=0;entryDx=0;entryDy=0;" parent="1" source="ivgzuz-2pKS20QDYnzjS-7" target="ivgzuz-2pKS20QDYnzjS-9" edge="1">
          <mxGeometry width="50" height="50" relative="1" as="geometry">
            <mxPoint x="390" y="492" as="sourcePoint" />
            <mxPoint x="440" y="442" as="targetPoint" />
          </mxGeometry>
        </mxCell>
        <mxCell id="ivgzuz-2pKS20QDYnzjS-11" value="print gs" style="shape=display;whiteSpace=wrap;html=1;fontSize=16;" parent="1" vertex="1">
          <mxGeometry x="273" y="906" width="130" height="40" as="geometry" />
        </mxCell>
        <mxCell id="ivgzuz-2pKS20QDYnzjS-12" value="" style="endArrow=classic;html=1;rounded=0;fontSize=16;exitX=0.5;exitY=1;exitDx=0;exitDy=0;entryX=0.5;entryY=0;entryDx=0;entryDy=0;" parent="1" source="ivgzuz-2pKS20QDYnzjS-9" target="ZD3PfOhlHjcqxrVu96We-1" edge="1">
          <mxGeometry width="50" height="50" relative="1" as="geometry">
            <mxPoint x="390" y="652" as="sourcePoint" />
            <mxPoint x="370" y="710" as="targetPoint" />
          </mxGeometry>
        </mxCell>
        <mxCell id="ivgzuz-2pKS20QDYnzjS-15" value="&lt;font style=&quot;font-size: 16px&quot;&gt;End&lt;/font&gt;" style="rounded=1;whiteSpace=wrap;html=1;fontSize=30;align=center;" parent="1" vertex="1">
          <mxGeometry x="290" y="1037" width="110" height="40" as="geometry" />
        </mxCell>
        <mxCell id="ivgzuz-2pKS20QDYnzjS-16" value="" style="endArrow=classic;html=1;rounded=0;fontSize=16;entryX=0.5;entryY=0;entryDx=0;entryDy=0;exitX=0;exitY=0;exitDx=71.25;exitDy=40;exitPerimeter=0;" parent="1" source="ZD3PfOhlHjcqxrVu96We-7" target="ivgzuz-2pKS20QDYnzjS-15" edge="1">
          <mxGeometry width="50" height="50" relative="1" as="geometry">
            <mxPoint x="390" y="1017" as="sourcePoint" />
            <mxPoint x="440" y="833" as="targetPoint" />
          </mxGeometry>
        </mxCell>
        <mxCell id="ZD3PfOhlHjcqxrVu96We-1" value="bonus = (ys/100)*10" style="rounded=0;whiteSpace=wrap;html=1;fontSize=16;" parent="1" vertex="1">
          <mxGeometry x="270" y="730" width="150" height="30" as="geometry" />
        </mxCell>
        <mxCell id="ZD3PfOhlHjcqxrVu96We-2" value="gs = ys + bonus" style="rounded=0;whiteSpace=wrap;html=1;fontSize=16;" parent="1" vertex="1">
          <mxGeometry x="270" y="790" width="150" height="30" as="geometry" />
        </mxCell>
        <mxCell id="ZD3PfOhlHjcqxrVu96We-3" value="" style="endArrow=classic;html=1;rounded=0;exitX=0.5;exitY=1;exitDx=0;exitDy=0;entryX=0.5;entryY=0;entryDx=0;entryDy=0;" parent="1" source="ZD3PfOhlHjcqxrVu96We-1" target="ZD3PfOhlHjcqxrVu96We-2" edge="1">
          <mxGeometry width="50" height="50" relative="1" as="geometry">
            <mxPoint x="390" y="860" as="sourcePoint" />
            <mxPoint x="440" y="810" as="targetPoint" />
          </mxGeometry>
        </mxCell>
        <mxCell id="ZD3PfOhlHjcqxrVu96We-4" value="ns = gs - tax" style="rounded=0;whiteSpace=wrap;html=1;fontSize=16;" parent="1" vertex="1">
          <mxGeometry x="270" y="850" width="150" height="30" as="geometry" />
        </mxCell>
        <mxCell id="ZD3PfOhlHjcqxrVu96We-5" value="" style="endArrow=classic;html=1;rounded=0;exitX=0.5;exitY=1;exitDx=0;exitDy=0;entryX=0.5;entryY=0;entryDx=0;entryDy=0;" parent="1" source="ZD3PfOhlHjcqxrVu96We-2" target="ZD3PfOhlHjcqxrVu96We-4" edge="1">
          <mxGeometry width="50" height="50" relative="1" as="geometry">
            <mxPoint x="390" y="1020" as="sourcePoint" />
            <mxPoint x="440" y="970" as="targetPoint" />
          </mxGeometry>
        </mxCell>
        <mxCell id="ZD3PfOhlHjcqxrVu96We-6" value="" style="endArrow=classic;html=1;rounded=0;exitX=0.5;exitY=1;exitDx=0;exitDy=0;entryX=0;entryY=0;entryDx=71.25;entryDy=0;entryPerimeter=0;" parent="1" source="ZD3PfOhlHjcqxrVu96We-4" target="ivgzuz-2pKS20QDYnzjS-11" edge="1">
          <mxGeometry width="50" height="50" relative="1" as="geometry">
            <mxPoint x="390" y="1020" as="sourcePoint" />
            <mxPoint x="440" y="970" as="targetPoint" />
          </mxGeometry>
        </mxCell>
        <mxCell id="ZD3PfOhlHjcqxrVu96We-7" value="print ns" style="shape=display;whiteSpace=wrap;html=1;fontSize=16;" parent="1" vertex="1">
          <mxGeometry x="273" y="970" width="130" height="40" as="geometry" />
        </mxCell>
        <mxCell id="ZD3PfOhlHjcqxrVu96We-8" value="" style="endArrow=classic;html=1;rounded=0;entryX=0;entryY=0;entryDx=71.25;entryDy=0;entryPerimeter=0;exitX=0;exitY=0;exitDx=71.25;exitDy=40;exitPerimeter=0;" parent="1" source="ivgzuz-2pKS20QDYnzjS-11" target="ZD3PfOhlHjcqxrVu96We-7" edge="1">
          <mxGeometry width="50" height="50" relative="1" as="geometry">
            <mxPoint x="390" y="820" as="sourcePoint" />
            <mxPoint x="440" y="770" as="targetPoint" />
          </mxGeometry>
        </mxCell>
      </root>
    </mxGraphModel>
  </diagram>
</mxfile>
